<?xml version="1.0" encoding="UTF-8"?>
<svg id="SED_Homepage_DE_EN_FR_IT" data-name="SED Homepage DE EN FR IT" xmlns="http://www.w3.org/2000/svg" viewBox="0 0 240 80">
  <defs>
    <style>
      .cls-1 {
        fill: #fff;
      }
    </style>
  </defs>
  <g>
    <path class="cls-1" d="m98.7,25.91c0,.27-.06.53-.19.8-.13.26-.3.49-.53.67-.25.2-.54.35-.86.46-.33.11-.72.17-1.19.17-.5,0-.94-.05-1.34-.14-.4-.09-.8-.23-1.21-.41v-1.15h.06c.35.29.75.51,1.21.67.46.16.89.24,1.29.24.57,0,1.01-.11,1.33-.32.32-.21.47-.5.47-.85,0-.31-.08-.53-.22-.68-.15-.15-.38-.26-.68-.34-.23-.06-.48-.11-.75-.15-.27-.04-.56-.09-.86-.15-.61-.13-1.06-.35-1.36-.66s-.44-.72-.44-1.23c0-.58.24-1.05.73-1.42.49-.37,1.11-.55,1.86-.55.48,0,.93.05,1.33.14.4.09.76.21,1.07.34v1.08h-.06c-.26-.22-.61-.41-1.04-.55-.43-.15-.87-.22-1.31-.22-.49,0-.89.1-1.18.31-.3.2-.45.47-.45.79,0,.29.07.51.22.68.15.16.41.29.78.38.2.04.48.1.84.16.36.06.67.12.93.19.51.14.9.34,1.16.62.26.28.39.66.39,1.15Z"/>
    <path class="cls-1" d="m103.75,27.56c-.29.14-.57.25-.83.32-.26.08-.54.12-.83.12-.37,0-.72-.06-1.03-.16-.31-.11-.58-.28-.8-.5-.23-.22-.4-.5-.52-.84-.12-.34-.19-.74-.19-1.19,0-.85.23-1.51.7-1.99.46-.48,1.08-.72,1.84-.72.3,0,.59.04.87.12.29.08.55.19.79.31v.97h-.05c-.27-.21-.54-.37-.82-.48-.28-.11-.56-.17-.83-.17-.49,0-.88.17-1.17.5-.29.33-.43.82-.43,1.46s.14,1.1.42,1.44c.28.33.67.5,1.18.5.18,0,.36-.02.54-.07.18-.05.35-.11.49-.18.13-.06.25-.13.36-.21.11-.07.2-.14.26-.19h.05v.96Z"/>
    <path class="cls-1" d="m109,27.88h-.87v-2.94c0-.24-.01-.46-.04-.67-.03-.21-.08-.37-.15-.49-.08-.13-.19-.23-.33-.29-.15-.06-.33-.09-.57-.09s-.49.06-.75.18c-.26.12-.51.27-.75.45v3.86h-.87v-7.21h.87v2.61c.27-.22.55-.4.84-.53.29-.13.59-.19.89-.19.56,0,.98.17,1.28.51.29.34.44.82.44,1.45v3.36Z"/>
    <path class="cls-1" d="m116.95,22.71l-1.35,5.17h-.81l-1.33-3.99-1.32,3.99h-.8l-1.36-5.17h.91l.95,4.01,1.29-4.01h.72l1.32,4.01.9-4.01h.88Z"/>
    <path class="cls-1" d="m122.35,25.39h-3.81c0,.32.05.6.14.83.1.24.23.43.39.58.16.15.35.26.57.33.22.07.46.11.73.11.35,0,.71-.07,1.06-.21.36-.14.61-.28.76-.42h.05v.95c-.29.12-.59.23-.9.31-.31.08-.63.13-.96.13-.86,0-1.53-.23-2.01-.7-.48-.46-.72-1.12-.72-1.98s.23-1.52.69-2.01c.46-.5,1.07-.75,1.82-.75.7,0,1.24.2,1.61.61.38.41.57.99.57,1.74v.47Zm-.85-.67c0-.46-.12-.81-.34-1.06-.23-.25-.57-.38-1.04-.38s-.84.14-1.11.41c-.28.27-.43.62-.47,1.02h2.96Z"/>
    <path class="cls-1" d="m124.42,21.84h-.98v-.9h.98v.9Zm-.06,6.04h-.87v-5.17h.87v5.17Z"/>
    <path class="cls-1" d="m129.65,27.88h-4.18v-.64l3.01-3.8h-2.95v-.73h4.03v.62l-3.03,3.82h3.11v.74Z"/>
    <path class="cls-1" d="m134.98,25.39h-3.81c0,.32.05.6.14.83.1.24.23.43.39.58.16.15.35.26.57.33.22.07.46.11.73.11.35,0,.71-.07,1.06-.21.36-.14.61-.28.76-.42h.05v.95c-.29.12-.59.23-.9.31-.31.08-.63.13-.96.13-.86,0-1.53-.23-2.01-.7-.48-.46-.72-1.12-.72-1.98s.23-1.52.69-2.01c.46-.5,1.07-.75,1.82-.75.7,0,1.24.2,1.61.61.38.41.57.99.57,1.74v.47Zm-.85-.67c0-.46-.12-.81-.34-1.06-.23-.25-.57-.38-1.04-.38s-.84.14-1.11.41c-.28.27-.43.62-.47,1.02h2.96Z"/>
    <path class="cls-1" d="m139.34,23.66h-.05c-.13-.03-.26-.05-.38-.07-.12-.01-.27-.02-.43-.02-.27,0-.53.06-.78.18-.25.12-.49.27-.72.46v3.67h-.87v-5.17h.87v.76c.35-.28.65-.47.91-.59.26-.12.53-.17.81-.17.15,0,.26,0,.33.01.07,0,.17.02.31.04v.89Z"/>
    <path class="cls-1" d="m140.92,21.84h-.98v-.9h.98v.9Zm-.06,6.04h-.87v-5.17h.87v5.17Z"/>
    <path class="cls-1" d="m146.09,26.39c0,.47-.2.86-.59,1.16s-.92.45-1.6.45c-.38,0-.73-.05-1.05-.14-.32-.09-.59-.19-.8-.3v-.98h.05c.28.21.58.37.92.49.34.12.66.18.97.18.38,0,.68-.06.9-.19.22-.12.32-.32.32-.58,0-.2-.06-.36-.18-.46-.12-.11-.34-.2-.68-.27-.12-.03-.29-.06-.48-.1-.2-.04-.38-.08-.54-.12-.45-.12-.78-.3-.97-.53-.19-.23-.28-.52-.28-.86,0-.21.04-.41.13-.6.09-.19.22-.36.4-.51.17-.15.39-.26.66-.35s.57-.13.9-.13c.31,0,.62.04.94.11.32.08.58.17.79.28v.93h-.05c-.22-.16-.49-.3-.81-.42-.32-.11-.63-.17-.94-.17s-.59.06-.81.18c-.22.12-.33.3-.33.54,0,.21.07.37.2.48.13.11.34.2.63.26.16.04.34.07.54.11.2.04.37.07.5.1.4.09.72.25.94.48.22.23.33.53.33.91Z"/>
    <path class="cls-1" d="m150.98,27.56c-.29.14-.57.25-.83.32-.26.08-.54.12-.83.12-.37,0-.72-.06-1.03-.16-.31-.11-.58-.28-.8-.5-.23-.22-.4-.5-.52-.84-.12-.34-.19-.74-.19-1.19,0-.85.23-1.51.7-1.99.46-.48,1.08-.72,1.84-.72.3,0,.59.04.87.12.29.08.55.19.79.31v.97h-.05c-.27-.21-.54-.37-.82-.48-.28-.11-.56-.17-.83-.17-.49,0-.88.17-1.17.5-.29.33-.43.82-.43,1.46s.14,1.1.42,1.44c.28.33.67.5,1.18.5.18,0,.36-.02.54-.07.18-.05.35-.11.49-.18.13-.06.25-.13.36-.21.11-.07.2-.14.26-.19h.05v.96Z"/>
    <path class="cls-1" d="m156.23,27.88h-.87v-2.94c0-.24-.01-.46-.04-.67-.03-.21-.08-.37-.15-.49-.08-.13-.19-.23-.33-.29-.15-.06-.33-.09-.57-.09s-.49.06-.75.18c-.26.12-.51.27-.75.45v3.86h-.87v-7.21h.87v2.61c.27-.22.55-.4.84-.53.29-.13.59-.19.89-.19.56,0,.98.17,1.28.51.29.34.44.82.44,1.45v3.36Z"/>
    <path class="cls-1" d="m162.06,25.39h-3.81c0,.32.05.6.14.83.1.24.23.43.39.58.16.15.35.26.57.33.22.07.46.11.73.11.35,0,.71-.07,1.06-.21.36-.14.61-.28.76-.42h.05v.95c-.29.12-.59.23-.9.31-.31.08-.63.13-.96.13-.86,0-1.53-.23-2.01-.7-.48-.46-.72-1.12-.72-1.98s.23-1.52.69-2.01c.46-.5,1.07-.75,1.82-.75.7,0,1.24.2,1.61.61.38.41.57.99.57,1.74v.47Zm-.85-.67c0-.46-.12-.81-.34-1.06-.23-.25-.57-.38-1.04-.38s-.84.14-1.11.41c-.28.27-.43.62-.47,1.02h2.96Z"/>
    <path class="cls-1" d="m166.43,23.66h-.05c-.13-.03-.26-.05-.38-.07-.12-.01-.27-.02-.43-.02-.27,0-.53.06-.78.18-.25.12-.49.27-.72.46v3.67h-.87v-5.17h.87v.76c.35-.28.65-.47.91-.59.26-.12.53-.17.81-.17.15,0,.26,0,.33.01.07,0,.17.02.31.04v.89Z"/>
    <path class="cls-1" d="m174.16,27.88h-4.54v-6.89h4.54v.81h-3.63v1.89h3.63v.82h-3.63v2.56h3.63v.82Z"/>
    <path class="cls-1" d="m178.58,23.66h-.05c-.13-.03-.26-.05-.38-.07-.12-.01-.27-.02-.43-.02-.27,0-.53.06-.78.18-.25.12-.49.27-.72.46v3.67h-.87v-5.17h.87v.76c.35-.28.65-.47.92-.59.26-.12.53-.17.81-.17.15,0,.26,0,.33.01.07,0,.17.02.31.04v.89Z"/>
    <path class="cls-1" d="m183.42,27.88h-.87v-.54c-.25.22-.51.38-.78.51-.27.12-.57.18-.88.18-.62,0-1.11-.24-1.47-.71-.36-.48-.54-1.13-.54-1.98,0-.44.06-.83.19-1.17.13-.34.29-.63.51-.88.21-.24.46-.41.73-.54.28-.12.57-.19.87-.19.27,0,.51.03.72.09.21.06.43.15.66.27v-2.24h.87v7.21Zm-.87-1.27v-2.97c-.24-.1-.45-.18-.63-.22-.19-.04-.39-.06-.61-.06-.49,0-.87.17-1.14.51-.27.34-.41.82-.41,1.44s.1,1.08.32,1.4c.21.32.55.48,1.01.48.25,0,.5-.06.75-.16.25-.11.49-.25.71-.42Z"/>
    <path class="cls-1" d="m189.49,25.26c0,.43-.06.82-.18,1.17-.12.35-.29.64-.49.87-.22.24-.46.43-.72.55-.26.12-.55.18-.87.18-.29,0-.55-.03-.77-.1-.22-.07-.44-.16-.65-.28l-.06.24h-.82v-7.21h.87v2.57c.24-.2.5-.37.78-.49.27-.13.58-.19.93-.19.61,0,1.09.24,1.45.7.35.47.53,1.13.53,1.99Zm-.9.02c0-.62-.1-1.09-.31-1.41-.2-.32-.53-.48-.99-.48-.25,0-.51.05-.77.16-.26.11-.5.25-.72.42v2.96c.25.11.46.19.64.23.18.04.38.06.6.06.48,0,.86-.16,1.13-.47.27-.32.41-.81.41-1.49Z"/>
    <path class="cls-1" d="m194.99,25.39h-3.81c0,.32.05.6.14.83.1.24.23.43.39.58.16.15.35.26.57.33.22.07.46.11.73.11.35,0,.71-.07,1.06-.21.36-.14.61-.28.76-.42h.05v.95c-.29.12-.59.23-.9.31-.31.08-.63.13-.96.13-.86,0-1.53-.23-2.01-.7-.48-.46-.72-1.12-.72-1.98s.23-1.52.69-2.01c.46-.5,1.07-.75,1.82-.75.7,0,1.24.2,1.61.61.38.41.57.99.57,1.74v.47Zm-.85-.67c0-.46-.12-.81-.35-1.06-.23-.25-.57-.38-1.04-.38s-.84.14-1.11.41c-.28.27-.43.62-.47,1.02h2.96Z"/>
    <path class="cls-1" d="m200.68,25.26c0,.43-.06.82-.18,1.17-.12.35-.29.64-.49.87-.22.24-.46.43-.72.55-.26.12-.55.18-.87.18-.29,0-.55-.03-.77-.1-.22-.07-.44-.16-.65-.28l-.06.24h-.82v-7.21h.87v2.57c.24-.2.5-.37.78-.49.27-.13.58-.19.93-.19.61,0,1.09.24,1.45.7.35.47.53,1.13.53,1.99Zm-.9.02c0-.62-.1-1.09-.31-1.41-.2-.32-.53-.48-.99-.48-.25,0-.51.05-.77.16-.26.11-.5.25-.72.42v2.96c.25.11.46.19.64.23.18.04.38.06.6.06.48,0,.86-.16,1.13-.47.27-.32.41-.81.41-1.49Z"/>
    <path class="cls-1" d="m206.18,25.39h-3.81c0,.32.05.6.14.83.1.24.23.43.39.58.16.15.35.26.57.33.22.07.46.11.73.11.35,0,.71-.07,1.06-.21.36-.14.61-.28.76-.42h.05v.95c-.29.12-.59.23-.9.31-.31.08-.63.13-.96.13-.86,0-1.53-.23-2.01-.7-.48-.46-.72-1.12-.72-1.98s.23-1.52.69-2.01c.46-.5,1.07-.75,1.82-.75.7,0,1.24.2,1.61.61.38.41.57.99.57,1.74v.47Zm-.85-.67c0-.46-.12-.81-.35-1.06-.23-.25-.57-.38-1.04-.38s-.84.14-1.11.41c-.28.27-.43.62-.47,1.02h2.96Z"/>
    <path class="cls-1" d="m211.64,27.88h-.87v-2.94c0-.24-.01-.46-.04-.67-.03-.21-.08-.37-.15-.49-.08-.13-.19-.23-.33-.29-.15-.06-.33-.09-.57-.09s-.49.06-.75.18c-.26.12-.51.27-.75.45v3.86h-.87v-5.17h.87v.57c.27-.22.55-.4.84-.53.29-.13.59-.19.89-.19.56,0,.98.17,1.28.51.29.34.44.82.44,1.45v3.36Z"/>
    <path class="cls-1" d="m217.34,27.88h-.87v-.54c-.25.22-.51.38-.78.51-.27.12-.57.18-.88.18-.62,0-1.11-.24-1.47-.71-.36-.48-.54-1.13-.54-1.98,0-.44.06-.83.19-1.17s.29-.63.51-.88c.21-.24.46-.41.73-.54.28-.12.57-.19.87-.19.27,0,.51.03.72.09.21.06.43.15.66.27v-2.24h.87v7.21Zm-.87-1.27v-2.97c-.24-.1-.45-.18-.63-.22-.19-.04-.39-.06-.61-.06-.49,0-.87.17-1.14.51-.27.34-.41.82-.41,1.44s.11,1.08.32,1.4c.21.32.55.48,1.01.48.25,0,.5-.06.75-.16.25-.11.49-.25.71-.42Z"/>
    <path class="cls-1" d="m219.79,21.84h-.98v-.9h.98v.9Zm-.06,6.04h-.87v-5.17h.87v5.17Z"/>
    <path class="cls-1" d="m225.6,25.39h-3.81c0,.32.05.6.14.83.1.24.23.43.39.58.16.15.35.26.57.33.22.07.46.11.73.11.35,0,.71-.07,1.06-.21.36-.14.61-.28.76-.42h.05v.95c-.29.12-.59.23-.9.31-.31.08-.63.13-.96.13-.86,0-1.53-.23-2.01-.7-.48-.46-.72-1.12-.72-1.98s.23-1.52.69-2.01c.46-.5,1.07-.75,1.82-.75.7,0,1.24.2,1.61.61.38.41.57.99.57,1.74v.47Zm-.85-.67c0-.46-.12-.81-.35-1.06-.23-.25-.57-.38-1.04-.38s-.84.14-1.11.41c-.28.27-.43.62-.47,1.02h2.96Z"/>
    <path class="cls-1" d="m231.07,27.88h-.87v-2.94c0-.24-.01-.46-.04-.67-.03-.21-.08-.37-.15-.49-.08-.13-.19-.23-.33-.29-.15-.06-.33-.09-.57-.09s-.49.06-.75.18c-.26.12-.51.27-.75.45v3.86h-.87v-5.17h.87v.57c.27-.22.55-.4.84-.53.29-.13.59-.19.89-.19.56,0,.98.17,1.28.51.29.34.44.82.44,1.45v3.36Z"/>
    <path class="cls-1" d="m236.26,26.39c0,.47-.2.86-.59,1.16-.39.3-.92.45-1.6.45-.38,0-.73-.05-1.05-.14-.32-.09-.59-.19-.8-.3v-.98h.05c.27.21.58.37.92.49.34.12.66.18.97.18.38,0,.68-.06.9-.19.22-.12.32-.32.32-.58,0-.2-.06-.36-.18-.46-.12-.11-.34-.2-.68-.27-.12-.03-.28-.06-.48-.1-.2-.04-.38-.08-.54-.12-.45-.12-.78-.3-.97-.53-.19-.23-.29-.52-.29-.86,0-.21.04-.41.13-.6.09-.19.22-.36.4-.51.17-.15.39-.26.66-.35.27-.09.57-.13.9-.13.31,0,.62.04.94.11.32.08.58.17.79.28v.93h-.05c-.22-.16-.49-.3-.81-.42-.32-.11-.63-.17-.94-.17s-.59.06-.81.18c-.22.12-.33.3-.33.54,0,.21.07.37.2.48.13.11.34.2.63.26.16.04.34.07.54.11.2.04.37.07.5.1.4.09.72.25.94.48.22.23.33.53.33.91Z"/>
    <path class="cls-1" d="m240,27.83c-.16.04-.34.08-.54.11-.19.03-.37.04-.52.04-.53,0-.93-.14-1.2-.43-.27-.28-.41-.74-.41-1.37v-2.75h-.59v-.73h.59v-1.49h.87v1.49h1.8v.73h-1.8v2.36c0,.27,0,.48.02.64.01.15.05.3.13.43.07.12.16.21.28.27.12.06.3.09.54.09.14,0,.29-.02.45-.06.15-.04.27-.08.33-.1h.05v.78Z"/>
  </g>
  <g>
    <path class="cls-1" d="m98.7,36.86c0,.27-.06.53-.19.8-.13.26-.3.49-.53.67-.25.2-.54.35-.86.46-.33.11-.72.17-1.19.17-.5,0-.94-.05-1.34-.14-.4-.09-.8-.23-1.21-.41v-1.15h.06c.35.29.75.51,1.21.67.46.16.89.24,1.29.24.57,0,1.01-.11,1.33-.32.32-.21.47-.5.47-.85,0-.31-.08-.53-.22-.68-.15-.15-.38-.26-.68-.34-.23-.06-.48-.11-.75-.15-.27-.04-.56-.09-.86-.15-.61-.13-1.06-.35-1.36-.66s-.44-.72-.44-1.23c0-.58.24-1.05.73-1.42.49-.37,1.11-.55,1.86-.55.48,0,.93.05,1.33.14.4.09.76.21,1.07.34v1.08h-.06c-.26-.22-.61-.41-1.04-.55-.43-.15-.87-.22-1.31-.22-.49,0-.89.1-1.18.31-.3.2-.45.47-.45.79,0,.29.07.51.22.68.15.16.41.29.78.38.2.04.48.1.84.16.36.06.67.13.93.19.51.14.9.34,1.16.62.26.28.39.66.39,1.15Z"/>
    <path class="cls-1" d="m104.25,36.33h-3.81c0,.32.05.6.14.83.1.24.23.43.39.58.16.15.35.26.57.33.22.07.46.11.73.11.35,0,.71-.07,1.06-.21.36-.14.61-.28.76-.42h.05v.95c-.29.12-.59.23-.9.31-.31.08-.63.13-.96.13-.86,0-1.53-.23-2.01-.7-.48-.46-.72-1.12-.72-1.98s.23-1.52.69-2.01c.46-.5,1.07-.75,1.82-.75.7,0,1.24.2,1.61.61.38.41.57.99.57,1.74v.47Zm-.85-.67c0-.46-.12-.81-.34-1.06-.23-.25-.57-.38-1.04-.38s-.84.14-1.11.41c-.28.27-.43.62-.47,1.02h2.96Z"/>
    <path class="cls-1" d="m108.62,34.6h-.05c-.13-.03-.26-.05-.38-.07-.12-.01-.27-.02-.43-.02-.27,0-.53.06-.78.18-.25.12-.49.27-.72.46v3.67h-.87v-5.17h.87v.76c.35-.28.65-.47.91-.59.26-.12.53-.17.81-.17.15,0,.26,0,.33.01.07,0,.17.02.31.04v.89Z"/>
    <path class="cls-1" d="m113.73,33.65l-2.09,5.17h-.88l-2.08-5.17h.94l1.6,4.12,1.59-4.12h.91Z"/>
    <path class="cls-1" d="m115.63,32.79h-.98v-.9h.98v.9Zm-.06,6.04h-.87v-5.17h.87v5.17Z"/>
    <path class="cls-1" d="m120.93,38.5c-.29.14-.57.25-.83.32-.26.08-.54.12-.83.12-.37,0-.72-.05-1.03-.16-.31-.11-.58-.28-.8-.5-.23-.22-.4-.5-.52-.84-.12-.34-.19-.74-.19-1.19,0-.85.23-1.51.7-1.99.46-.48,1.08-.72,1.84-.72.3,0,.59.04.87.13.29.08.55.19.79.31v.97h-.05c-.27-.21-.54-.37-.82-.48-.28-.11-.56-.17-.83-.17-.49,0-.88.17-1.17.5-.29.33-.43.82-.43,1.46s.14,1.1.42,1.44c.28.33.67.5,1.18.5.18,0,.36-.02.54-.07.18-.05.35-.11.49-.18.13-.06.25-.13.36-.21s.2-.14.26-.19h.05v.96Z"/>
    <path class="cls-1" d="m126.18,36.33h-3.81c0,.32.05.6.14.83.1.24.23.43.39.58.16.15.35.26.57.33.22.07.46.11.73.11.35,0,.71-.07,1.06-.21.36-.14.61-.28.76-.42h.05v.95c-.29.12-.59.23-.9.31-.31.08-.63.13-.96.13-.86,0-1.53-.23-2.01-.7-.48-.46-.72-1.12-.72-1.98s.23-1.52.69-2.01c.46-.5,1.07-.75,1.82-.75.7,0,1.24.2,1.61.61.38.41.57.99.57,1.74v.47Zm-.85-.67c0-.46-.12-.81-.34-1.06-.23-.25-.57-.38-1.04-.38s-.84.14-1.11.41c-.28.27-.43.62-.47,1.02h2.96Z"/>
    <path class="cls-1" d="m134.89,36.86c0,.27-.06.53-.19.8-.13.26-.3.49-.53.67-.25.2-.54.35-.86.46-.33.11-.72.17-1.19.17-.5,0-.94-.05-1.34-.14-.4-.09-.8-.23-1.21-.41v-1.15h.06c.35.29.75.51,1.21.67.46.16.89.24,1.29.24.57,0,1.01-.11,1.33-.32.32-.21.47-.5.47-.85,0-.31-.08-.53-.22-.68-.15-.15-.38-.26-.68-.34-.23-.06-.48-.11-.75-.15-.27-.04-.56-.09-.86-.15-.61-.13-1.06-.35-1.36-.66s-.44-.72-.44-1.23c0-.58.24-1.05.73-1.42.49-.37,1.11-.55,1.86-.55.48,0,.93.05,1.33.14.4.09.76.21,1.07.34v1.08h-.06c-.26-.22-.61-.41-1.04-.55-.43-.15-.87-.22-1.31-.22-.49,0-.89.1-1.18.31-.3.2-.45.47-.45.79,0,.29.07.51.22.68.15.16.41.29.78.38.2.04.48.1.84.16.36.06.67.13.93.19.51.14.9.34,1.16.62.26.28.39.66.39,1.15Z"/>
    <path class="cls-1" d="m137.04,32.79h-.98v-.9h.98v.9Zm-.06,6.04h-.87v-5.17h.87v5.17Z"/>
    <path class="cls-1" d="m142.22,37.33c0,.47-.2.86-.59,1.16s-.92.45-1.6.45c-.38,0-.73-.05-1.05-.14-.32-.09-.59-.19-.8-.3v-.98h.05c.28.21.58.37.92.49.34.12.66.18.97.18.38,0,.68-.06.9-.19.22-.12.32-.32.32-.58,0-.2-.06-.36-.18-.46-.12-.1-.34-.2-.68-.27-.12-.03-.29-.06-.48-.1-.2-.04-.38-.08-.54-.12-.45-.12-.78-.3-.97-.53-.19-.23-.28-.52-.28-.86,0-.21.04-.41.13-.6.09-.19.22-.36.4-.51.17-.15.39-.26.66-.35s.57-.13.9-.13c.31,0,.62.04.94.11.32.08.58.17.79.28v.93h-.05c-.22-.16-.49-.3-.81-.42-.32-.11-.63-.17-.94-.17s-.59.06-.81.18c-.22.12-.33.3-.33.54,0,.21.07.37.2.48.13.11.34.2.63.26.16.04.34.07.54.11.2.04.37.07.5.1.4.09.72.25.94.48.22.23.33.53.33.91Z"/>
    <path class="cls-1" d="m150.82,38.83h-.87v-2.94c0-.22-.01-.44-.03-.64-.02-.21-.06-.37-.13-.5-.07-.13-.17-.23-.31-.3-.13-.07-.32-.1-.57-.1s-.49.06-.73.18c-.24.12-.49.28-.73.47,0,.07.02.15.02.25,0,.09,0,.19,0,.28v3.31h-.87v-2.94c0-.23,0-.45-.03-.65-.02-.21-.06-.37-.13-.49-.07-.13-.17-.23-.31-.3-.13-.07-.32-.1-.57-.1s-.48.06-.72.18c-.24.12-.48.27-.72.45v3.86h-.87v-5.17h.87v.57c.27-.23.54-.4.81-.53.27-.13.56-.19.86-.19.35,0,.65.07.9.22.25.15.43.35.55.62.35-.3.67-.51.96-.64.29-.13.6-.2.93-.2.57,0,.99.17,1.26.52.27.34.41.82.41,1.44v3.36Z"/>
    <path class="cls-1" d="m156.73,36.24c0,.84-.22,1.51-.65,2-.43.49-1.01.73-1.74.73s-1.31-.24-1.74-.73c-.43-.49-.65-1.15-.65-2s.22-1.51.65-2c.43-.49,1.01-.73,1.74-.73s1.3.25,1.74.73c.43.49.65,1.16.65,2Zm-.9,0c0-.67-.13-1.17-.39-1.49-.26-.33-.63-.49-1.09-.49s-.84.16-1.1.49c-.26.33-.39.82-.39,1.49s.13,1.14.39,1.47c.26.34.63.5,1.1.5s.83-.17,1.09-.5c.26-.33.4-.83.4-1.48Z"/>
    <path class="cls-1" d="m158.77,38.83h-.87v-7.21h.87v7.21Z"/>
    <path class="cls-1" d="m164.71,36.24c0,.84-.22,1.51-.65,2-.43.49-1.01.73-1.74.73s-1.31-.24-1.74-.73c-.43-.49-.65-1.15-.65-2s.22-1.51.65-2c.43-.49,1.01-.73,1.74-.73s1.3.25,1.74.73c.43.49.65,1.16.65,2Zm-.9,0c0-.67-.13-1.17-.39-1.49-.26-.33-.63-.49-1.09-.49s-.84.16-1.1.49c-.26.33-.39.82-.39,1.49s.13,1.14.39,1.47c.26.34.63.5,1.1.5s.83-.17,1.09-.5c.26-.33.4-.83.4-1.48Z"/>
    <path class="cls-1" d="m170.08,38.24c0,.88-.2,1.52-.6,1.93-.4.41-1.01.62-1.84.62-.28,0-.54-.02-.8-.06-.26-.04-.52-.09-.77-.16v-.89h.05c.14.05.37.12.68.21.31.08.62.12.93.12s.54-.03.74-.11c.2-.07.35-.17.46-.3.11-.12.19-.27.23-.44.05-.17.07-.36.07-.57v-.47c-.26.21-.51.37-.75.47-.24.1-.55.16-.92.16-.62,0-1.11-.22-1.47-.67-.36-.45-.54-1.08-.54-1.89,0-.45.06-.83.19-1.15.13-.32.3-.6.51-.84.2-.22.44-.39.73-.51.29-.12.57-.18.86-.18.3,0,.55.03.75.09.2.06.42.15.64.28l.05-.22h.82v4.58Zm-.87-.83v-2.82c-.23-.11-.45-.18-.65-.22-.2-.05-.4-.07-.6-.07-.48,0-.86.16-1.13.48-.28.32-.41.79-.41,1.4,0,.58.1,1.02.31,1.32.2.3.54.45,1.01.45.25,0,.51-.05.76-.15.26-.1.49-.23.7-.39Z"/>
    <path class="cls-1" d="m172.54,32.79h-.98v-.9h.98v.9Zm-.06,6.04h-.87v-5.17h.87v5.17Z"/>
    <path class="cls-1" d="m178.21,40.73h-.87v-2.49c-.27.23-.54.4-.8.52-.27.11-.55.17-.86.17-.61,0-1.1-.24-1.47-.71-.37-.47-.55-1.13-.55-1.96,0-.45.06-.84.19-1.18.13-.34.3-.63.51-.86.2-.23.44-.4.72-.52.28-.12.57-.19.87-.19.28,0,.52.03.74.09.21.06.43.15.66.27l.06-.22h.82v7.08Zm-.87-3.22v-2.93c-.24-.11-.45-.18-.64-.23-.19-.04-.39-.07-.6-.07-.5,0-.89.17-1.15.51s-.39.81-.39,1.41.11,1.07.32,1.4c.21.33.54.49,1,.49.25,0,.51-.05.76-.16.25-.11.49-.25.71-.42Z"/>
    <path class="cls-1" d="m184.02,38.83h-.87v-.57c-.29.23-.57.41-.84.53-.27.12-.57.19-.89.19-.54,0-.97-.17-1.27-.5-.3-.33-.45-.82-.45-1.46v-3.36h.87v2.95c0,.26.01.49.04.67.03.19.08.35.16.48.08.14.19.24.32.3.13.06.33.09.58.09.23,0,.47-.06.74-.18.27-.12.52-.27.75-.45v-3.86h.87v5.17Z"/>
    <path class="cls-1" d="m189.88,36.33h-3.81c0,.32.05.6.14.83.1.24.23.43.39.58.16.15.35.26.57.33.22.07.46.11.73.11.35,0,.71-.07,1.06-.21.36-.14.61-.28.76-.42h.05v.95c-.29.12-.59.23-.9.31-.31.08-.63.13-.96.13-.86,0-1.53-.23-2.01-.7-.48-.46-.72-1.12-.72-1.98s.23-1.52.69-2.01c.46-.5,1.07-.75,1.82-.75.7,0,1.24.2,1.61.61.38.41.57.99.57,1.74v.47Zm-.85-.67c0-.46-.12-.81-.35-1.06-.23-.25-.57-.38-1.04-.38s-.84.14-1.11.41c-.28.27-.43.62-.47,1.02h2.96Z"/>
    <path class="cls-1" d="m198.58,36.86c0,.27-.06.53-.19.8-.13.26-.3.49-.53.67-.25.2-.54.35-.86.46-.33.11-.73.17-1.19.17-.5,0-.94-.05-1.34-.14-.4-.09-.8-.23-1.21-.41v-1.15h.07c.35.29.75.51,1.21.67s.89.24,1.29.24c.57,0,1.01-.11,1.33-.32.32-.21.48-.5.48-.85,0-.31-.07-.53-.22-.68-.15-.15-.38-.26-.68-.34-.23-.06-.48-.11-.75-.15-.27-.04-.56-.09-.86-.15-.61-.13-1.06-.35-1.36-.66s-.44-.72-.44-1.23c0-.58.24-1.05.73-1.42.49-.37,1.11-.55,1.86-.55.49,0,.93.05,1.33.14.4.09.76.21,1.07.34v1.08h-.06c-.26-.22-.61-.41-1.03-.55-.43-.15-.87-.22-1.31-.22-.49,0-.89.1-1.18.31-.3.2-.45.47-.45.79,0,.29.07.51.22.68.15.16.41.29.78.38.2.04.48.1.84.16.36.06.67.13.93.19.51.14.9.34,1.16.62.26.28.39.66.39,1.15Z"/>
    <path class="cls-1" d="m204.1,38.83h-.87v-.57c-.29.23-.57.41-.84.53-.27.12-.57.19-.89.19-.54,0-.97-.17-1.27-.5-.3-.33-.45-.82-.45-1.46v-3.36h.87v2.95c0,.26.01.49.04.67.03.19.08.35.16.48.08.14.19.24.32.3.13.06.33.09.58.09.23,0,.47-.06.74-.18.27-.12.52-.27.75-.45v-3.86h.87v5.17Z"/>
    <path class="cls-1" d="m206.56,32.79h-.98v-.9h.98v.9Zm-.06,6.04h-.87v-5.17h.87v5.17Z"/>
    <path class="cls-1" d="m211.74,37.33c0,.47-.2.86-.59,1.16-.39.3-.92.45-1.6.45-.38,0-.73-.05-1.05-.14-.32-.09-.59-.19-.8-.3v-.98h.05c.27.21.58.37.92.49.34.12.66.18.97.18.38,0,.68-.06.9-.19.22-.12.32-.32.32-.58,0-.2-.06-.36-.18-.46-.12-.1-.34-.2-.68-.27-.12-.03-.28-.06-.48-.1-.2-.04-.38-.08-.54-.12-.45-.12-.78-.3-.97-.53-.19-.23-.29-.52-.29-.86,0-.21.04-.41.13-.6.09-.19.22-.36.4-.51.17-.15.39-.26.66-.35.27-.09.57-.13.9-.13.31,0,.62.04.94.11.32.08.58.17.79.28v.93h-.05c-.22-.16-.49-.3-.81-.42-.32-.11-.63-.17-.94-.17s-.59.06-.81.18-.33.3-.33.54c0,.21.07.37.2.48.13.11.34.2.63.26.16.04.34.07.54.11.2.04.37.07.5.1.4.09.72.25.94.48.22.23.33.53.33.91Z"/>
    <path class="cls-1" d="m216.49,37.33c0,.47-.2.86-.59,1.16-.39.3-.92.45-1.6.45-.38,0-.73-.05-1.05-.14-.32-.09-.59-.19-.8-.3v-.98h.05c.27.21.58.37.92.49.34.12.66.18.97.18.38,0,.68-.06.9-.19.22-.12.32-.32.32-.58,0-.2-.06-.36-.18-.46-.12-.1-.34-.2-.68-.27-.12-.03-.28-.06-.48-.1-.2-.04-.38-.08-.54-.12-.45-.12-.78-.3-.97-.53-.19-.23-.29-.52-.29-.86,0-.21.04-.41.13-.6.09-.19.22-.36.4-.51.17-.15.39-.26.66-.35.27-.09.57-.13.9-.13.31,0,.62.04.94.11.32.08.58.17.79.28v.93h-.05c-.22-.16-.49-.3-.81-.42-.32-.11-.63-.17-.94-.17s-.59.06-.81.18c-.22.12-.33.3-.33.54,0,.21.07.37.2.48.13.11.34.2.63.26.16.04.34.07.54.11.2.04.37.07.5.1.4.09.72.25.94.48.22.23.33.53.33.91Z"/>
    <path class="cls-1" d="m221.87,36.33h-3.81c0,.32.05.6.14.83.1.24.23.43.39.58.16.15.35.26.57.33.22.07.46.11.73.11.35,0,.71-.07,1.06-.21.36-.14.61-.28.76-.42h.05v.95c-.29.12-.59.23-.9.31-.31.08-.63.13-.96.13-.86,0-1.53-.23-2.01-.7-.48-.46-.72-1.12-.72-1.98s.23-1.52.69-2.01c.46-.5,1.07-.75,1.82-.75.7,0,1.24.2,1.61.61.38.41.57.99.57,1.74v.47Zm-.85-.67c0-.46-.12-.81-.35-1.06-.23-.25-.57-.38-1.04-.38s-.84.14-1.11.41c-.28.27-.43.62-.47,1.02h2.96Z"/>
  </g>
  <g>
    <path class="cls-1" d="m98.7,47.8c0,.27-.06.53-.19.8-.13.26-.3.49-.53.67-.25.2-.54.35-.86.46-.33.11-.72.17-1.19.17-.5,0-.94-.05-1.34-.14-.4-.09-.8-.23-1.21-.41v-1.15h.06c.35.29.75.51,1.21.67.46.16.89.24,1.29.24.57,0,1.01-.11,1.33-.32.32-.21.47-.5.47-.85,0-.31-.08-.53-.22-.68s-.38-.26-.68-.34c-.23-.06-.48-.11-.75-.15-.27-.04-.56-.09-.86-.15-.61-.13-1.06-.35-1.36-.66-.29-.31-.44-.72-.44-1.23,0-.58.24-1.05.73-1.42.49-.37,1.11-.55,1.86-.55.48,0,.93.05,1.33.14.4.09.76.21,1.07.34v1.08h-.06c-.26-.22-.61-.41-1.04-.55-.43-.15-.87-.22-1.31-.22-.49,0-.89.1-1.18.31-.3.2-.45.47-.45.79,0,.29.07.51.22.68.15.16.41.29.78.38.2.04.48.1.84.16.36.06.67.13.93.19.51.14.9.34,1.16.62.26.28.39.66.39,1.15Z"/>
    <path class="cls-1" d="m104.25,47.27h-3.81c0,.32.05.6.14.83.1.24.23.43.39.58.16.15.35.26.57.33.22.07.46.11.73.11.35,0,.71-.07,1.06-.21.36-.14.61-.28.76-.42h.05v.95c-.29.12-.59.23-.9.31-.31.08-.63.13-.96.13-.86,0-1.53-.23-2.01-.7-.48-.46-.72-1.12-.72-1.98s.23-1.52.69-2.01c.46-.5,1.07-.75,1.82-.75.7,0,1.24.2,1.61.61.38.41.57.99.57,1.74v.47Zm-.85-.67c0-.46-.12-.81-.34-1.06-.23-.25-.57-.38-1.04-.38s-.84.14-1.11.41c-.28.27-.43.62-.47,1.02h2.96Z"/>
    <path class="cls-1" d="m108.62,45.55h-.05c-.13-.03-.26-.05-.38-.07-.12-.01-.27-.02-.43-.02-.27,0-.53.06-.78.18-.25.12-.49.27-.72.46v3.67h-.87v-5.17h.87v.76c.35-.28.65-.47.91-.59.26-.12.53-.17.81-.17.15,0,.26,0,.33.01.07,0,.17.02.31.04v.89Z"/>
    <path class="cls-1" d="m113.73,44.6l-2.09,5.17h-.88l-2.08-5.17h.94l1.6,4.12,1.59-4.12h.91Z"/>
    <path class="cls-1" d="m115.63,43.73h-.98v-.9h.98v.9Zm-.06,6.04h-.87v-5.17h.87v5.17Z"/>
    <path class="cls-1" d="m120.85,49.77h-4.18v-.64l3.01-3.8h-2.95v-.73h4.03v.62l-3.03,3.82h3.11v.74Z"/>
    <path class="cls-1" d="m122.83,43.73h-.98v-.9h.98v.9Zm-.06,6.04h-.87v-5.17h.87v5.17Z"/>
    <path class="cls-1" d="m128.72,47.19c0,.84-.22,1.51-.65,2-.43.49-1.01.73-1.74.73s-1.31-.24-1.74-.73c-.43-.49-.65-1.15-.65-2s.22-1.51.65-2c.43-.49,1.01-.73,1.74-.73s1.3.25,1.74.73c.43.49.65,1.16.65,2Zm-.9,0c0-.67-.13-1.17-.39-1.49-.26-.33-.63-.49-1.09-.49s-.84.16-1.1.49c-.26.33-.39.82-.39,1.49s.13,1.14.39,1.47c.26.34.63.5,1.1.5s.83-.17,1.09-.5c.26-.33.4-.83.4-1.48Z"/>
    <path class="cls-1" d="m137.45,47.8c0,.27-.06.53-.19.8-.13.26-.3.49-.53.67-.25.2-.54.35-.86.46-.33.11-.72.17-1.19.17-.5,0-.94-.05-1.34-.14-.4-.09-.8-.23-1.21-.41v-1.15h.06c.35.29.75.51,1.21.67.46.16.89.24,1.29.24.57,0,1.01-.11,1.33-.32.32-.21.47-.5.47-.85,0-.31-.08-.53-.22-.68s-.38-.26-.68-.34c-.23-.06-.48-.11-.75-.15-.27-.04-.56-.09-.86-.15-.61-.13-1.06-.35-1.36-.66-.29-.31-.44-.72-.44-1.23,0-.58.24-1.05.73-1.42.49-.37,1.11-.55,1.86-.55.48,0,.93.05,1.33.14.4.09.76.21,1.07.34v1.08h-.06c-.26-.22-.61-.41-1.04-.55-.43-.15-.87-.22-1.31-.22-.49,0-.89.1-1.18.31-.3.2-.45.47-.45.79,0,.29.07.51.22.68.15.16.41.29.78.38.2.04.48.1.84.16.36.06.67.13.93.19.51.14.9.34,1.16.62.26.28.39.66.39,1.15Z"/>
    <path class="cls-1" d="m139.6,43.73h-.98v-.9h.98v.9Zm-.06,6.04h-.87v-5.17h.87v5.17Z"/>
    <path class="cls-1" d="m144.78,48.28c0,.47-.2.86-.59,1.16-.39.3-.92.45-1.6.45-.38,0-.73-.05-1.05-.14-.32-.09-.59-.19-.8-.3v-.98h.05c.28.21.58.37.92.49.34.12.66.18.97.18.38,0,.68-.06.9-.19.22-.12.32-.32.32-.58,0-.2-.06-.36-.18-.46-.12-.11-.34-.2-.68-.27-.12-.03-.29-.06-.48-.1-.2-.04-.38-.08-.54-.12-.45-.12-.78-.3-.97-.53-.19-.23-.28-.52-.28-.86,0-.21.04-.41.13-.6.09-.19.22-.36.4-.51.17-.15.39-.26.66-.34.27-.09.57-.13.9-.13.31,0,.62.04.94.11.32.08.58.17.79.28v.93h-.05c-.22-.16-.49-.3-.81-.42-.32-.11-.63-.17-.94-.17s-.59.06-.81.18c-.22.12-.33.3-.33.54,0,.21.07.37.2.48.13.11.34.2.63.26.16.04.34.07.54.11.2.04.37.07.5.1.4.09.72.25.94.48.22.23.33.53.33.91Z"/>
    <path class="cls-1" d="m153.38,49.77h-.87v-2.94c0-.22,0-.44-.03-.64-.02-.21-.06-.37-.13-.5-.07-.13-.17-.23-.31-.3-.13-.07-.32-.1-.57-.1s-.49.06-.73.18c-.24.12-.49.28-.73.47,0,.07.02.15.02.25,0,.09,0,.19,0,.28v3.31h-.87v-2.94c0-.23,0-.45-.03-.65-.02-.21-.06-.37-.13-.49-.07-.13-.17-.23-.31-.3-.13-.07-.32-.1-.57-.1s-.48.06-.72.18c-.24.12-.48.27-.72.45v3.86h-.87v-5.17h.87v.57c.27-.23.54-.4.81-.53.27-.13.56-.19.86-.19.35,0,.65.07.9.22.25.15.43.35.55.62.35-.3.67-.51.96-.64.29-.13.6-.2.93-.2.57,0,.99.17,1.26.52.27.34.41.82.41,1.44v3.36Z"/>
    <path class="cls-1" d="m155.81,43.73h-.98v-.9h.98v.9Zm-.06,6.04h-.87v-5.17h.87v5.17Z"/>
    <path class="cls-1" d="m161.12,49.45c-.29.14-.57.25-.83.32-.26.08-.54.12-.83.12-.37,0-.72-.05-1.03-.16-.31-.11-.58-.28-.8-.5-.23-.22-.4-.5-.52-.84-.12-.34-.19-.74-.19-1.19,0-.85.23-1.51.7-1.99.46-.48,1.08-.72,1.84-.72.3,0,.59.04.87.13.29.08.55.19.79.31v.97h-.05c-.27-.21-.54-.37-.82-.48-.28-.11-.56-.17-.83-.17-.49,0-.88.17-1.17.5-.29.33-.43.82-.43,1.46s.14,1.1.42,1.44c.28.33.67.5,1.18.5.18,0,.36-.02.54-.07.18-.05.35-.11.49-.18.13-.06.25-.13.36-.21.11-.07.2-.14.26-.19h.05v.96Z"/>
    <path class="cls-1" d="m166.45,47.19c0,.84-.22,1.51-.65,2-.43.49-1.01.73-1.74.73s-1.31-.24-1.74-.73c-.43-.49-.65-1.15-.65-2s.22-1.51.65-2c.43-.49,1.01-.73,1.74-.73s1.3.25,1.74.73c.43.49.65,1.16.65,2Zm-.9,0c0-.67-.13-1.17-.39-1.49-.26-.33-.63-.49-1.09-.49s-.84.16-1.1.49c-.26.33-.39.82-.39,1.49s.13,1.14.39,1.47c.26.34.63.5,1.1.5s.83-.17,1.09-.5c.26-.33.4-.83.4-1.48Z"/>
    <path class="cls-1" d="m175.18,47.8c0,.27-.06.53-.19.8-.13.26-.3.49-.53.67-.25.2-.54.35-.86.46-.33.11-.73.17-1.19.17-.5,0-.94-.05-1.34-.14-.4-.09-.8-.23-1.21-.41v-1.15h.07c.35.29.75.51,1.21.67.46.16.89.24,1.29.24.57,0,1.01-.11,1.33-.32.32-.21.48-.5.48-.85,0-.31-.08-.53-.23-.68-.15-.15-.38-.26-.68-.34-.23-.06-.48-.11-.75-.15-.27-.04-.56-.09-.86-.15-.61-.13-1.06-.35-1.36-.66-.3-.31-.44-.72-.44-1.23,0-.58.24-1.05.73-1.42.49-.37,1.11-.55,1.86-.55.49,0,.93.05,1.33.14.4.09.76.21,1.07.34v1.08h-.07c-.26-.22-.61-.41-1.03-.55-.43-.15-.87-.22-1.31-.22-.49,0-.89.1-1.18.31-.3.2-.45.47-.45.79,0,.29.07.51.22.68.15.16.41.29.78.38.2.04.48.1.84.16.36.06.67.13.93.19.51.14.9.34,1.16.62.26.28.39.66.39,1.15Z"/>
    <path class="cls-1" d="m180.73,44.6l-2.09,5.17h-.88l-2.08-5.17h.94l1.6,4.12,1.59-4.12h.91Z"/>
    <path class="cls-1" d="m182.63,43.73h-.98v-.9h.98v.9Zm-.06,6.04h-.87v-5.17h.87v5.17Z"/>
    <path class="cls-1" d="m187.86,49.77h-4.18v-.64l3.01-3.8h-2.95v-.73h4.03v.62l-3.03,3.82h3.11v.74Z"/>
    <path class="cls-1" d="m192.65,49.77h-4.18v-.64l3.01-3.8h-2.95v-.73h4.03v.62l-3.03,3.82h3.11v.74Z"/>
    <path class="cls-1" d="m197.97,47.27h-3.81c0,.32.05.6.14.83.1.24.23.43.39.58.16.15.35.26.57.33.22.07.46.11.73.11.35,0,.71-.07,1.06-.21.36-.14.61-.28.76-.42h.05v.95c-.29.12-.59.23-.9.31-.31.08-.63.13-.96.13-.86,0-1.53-.23-2.01-.7-.48-.46-.72-1.12-.72-1.98s.23-1.52.69-2.01c.46-.5,1.07-.75,1.82-.75.7,0,1.24.2,1.61.61.38.41.57.99.57,1.74v.47Zm-.85-.67c0-.46-.12-.81-.35-1.06-.23-.25-.57-.38-1.04-.38s-.84.14-1.11.41c-.28.27-.43.62-.47,1.02h2.96Z"/>
    <path class="cls-1" d="m202.34,45.55h-.05c-.13-.03-.26-.05-.38-.07-.12-.01-.27-.02-.43-.02-.27,0-.53.06-.78.18-.25.12-.49.27-.72.46v3.67h-.87v-5.17h.87v.76c.35-.28.65-.47.92-.59.26-.12.53-.17.81-.17.15,0,.26,0,.33.01.07,0,.17.02.31.04v.89Z"/>
    <path class="cls-1" d="m207.39,47.19c0,.84-.22,1.51-.65,2-.43.49-1.01.73-1.74.73s-1.31-.24-1.74-.73c-.43-.49-.65-1.15-.65-2s.22-1.51.65-2c.43-.49,1.01-.73,1.74-.73s1.3.25,1.74.73.65,1.16.65,2Zm-.9,0c0-.67-.13-1.17-.39-1.49-.26-.33-.63-.49-1.09-.49s-.84.16-1.1.49c-.26.33-.39.82-.39,1.49s.13,1.14.39,1.47c.26.34.63.5,1.1.5s.83-.17,1.09-.5c.26-.33.4-.83.4-1.48Z"/>
  </g>
  <g>
    <path class="cls-1" d="m98.7,58.75c0,.27-.06.53-.19.8-.13.26-.3.49-.53.67-.25.2-.54.35-.86.46-.33.11-.72.17-1.19.17-.5,0-.94-.05-1.34-.14-.4-.09-.8-.23-1.21-.41v-1.15h.06c.35.29.75.51,1.21.67.46.16.89.24,1.29.24.57,0,1.01-.11,1.33-.32.32-.21.47-.5.47-.85,0-.31-.08-.53-.22-.68s-.38-.26-.68-.34c-.23-.06-.48-.11-.75-.15-.27-.04-.56-.09-.86-.15-.61-.13-1.06-.35-1.36-.66s-.44-.72-.44-1.23c0-.58.24-1.05.73-1.42.49-.37,1.11-.55,1.86-.55.48,0,.93.05,1.33.14.4.09.76.21,1.07.34v1.08h-.06c-.26-.22-.61-.41-1.04-.55-.43-.15-.87-.22-1.31-.22-.49,0-.89.1-1.18.31-.3.2-.45.47-.45.79,0,.29.07.51.22.68.15.16.41.29.78.38.2.04.48.1.84.16.36.06.67.13.93.19.51.14.9.34,1.16.62.26.28.39.66.39,1.15Z"/>
    <path class="cls-1" d="m106.33,55.54l-1.35,5.17h-.81l-1.33-3.99-1.32,3.99h-.8l-1.36-5.17h.91l.95,4.01,1.29-4.01h.72l1.32,4.01.9-4.01h.88Z"/>
    <path class="cls-1" d="m108.33,54.68h-.98v-.9h.98v.9Zm-.06,6.04h-.87v-5.17h.87v5.17Z"/>
    <path class="cls-1" d="m113.51,59.22c0,.47-.2.86-.59,1.16-.39.3-.92.45-1.6.45-.38,0-.73-.05-1.05-.14-.32-.09-.59-.19-.8-.3v-.98h.05c.28.21.58.37.92.49.34.12.66.18.97.18.38,0,.68-.06.9-.19.22-.12.32-.32.32-.58,0-.2-.06-.36-.18-.46-.12-.1-.34-.2-.68-.27-.12-.03-.29-.06-.48-.1-.2-.04-.38-.08-.54-.12-.45-.12-.78-.3-.97-.53-.19-.23-.28-.52-.28-.86,0-.21.04-.41.13-.6.09-.19.22-.36.4-.51.17-.15.39-.26.66-.35s.57-.13.9-.13c.31,0,.62.04.94.11.32.08.58.17.79.28v.93h-.05c-.22-.16-.49-.3-.81-.42-.32-.11-.63-.17-.94-.17s-.59.06-.81.18c-.22.12-.33.3-.33.54,0,.21.07.37.2.48.13.11.34.2.63.26.16.04.34.07.54.11.2.04.37.07.5.1.4.09.72.25.94.48.22.23.33.53.33.91Z"/>
    <path class="cls-1" d="m118.26,59.22c0,.47-.2.86-.59,1.16-.39.3-.92.45-1.6.45-.38,0-.73-.05-1.05-.14-.32-.09-.59-.19-.8-.3v-.98h.05c.28.21.58.37.92.49.34.12.66.18.97.18.38,0,.68-.06.9-.19.22-.12.32-.32.32-.58,0-.2-.06-.36-.18-.46-.12-.1-.34-.2-.68-.27-.12-.03-.29-.06-.48-.1-.2-.04-.38-.08-.54-.12-.45-.12-.78-.3-.97-.53-.19-.23-.28-.52-.28-.86,0-.21.04-.41.13-.6.09-.19.22-.36.4-.51.17-.15.39-.26.66-.35.27-.09.57-.13.9-.13.31,0,.62.04.94.11.32.08.58.17.79.28v.93h-.05c-.22-.16-.49-.3-.81-.42-.32-.11-.63-.17-.94-.17s-.59.06-.81.18c-.22.12-.33.3-.33.54,0,.21.07.37.2.48.13.11.34.2.63.26.16.04.34.07.54.11.2.04.37.07.5.1.4.09.72.25.94.48.22.23.33.53.33.91Z"/>
    <path class="cls-1" d="m126.88,58.75c0,.27-.06.53-.19.8-.12.26-.3.49-.53.67-.25.2-.54.35-.86.46-.33.11-.72.17-1.19.17-.5,0-.94-.05-1.34-.14-.4-.09-.8-.23-1.21-.41v-1.15h.06c.35.29.75.51,1.21.67.46.16.89.24,1.29.24.57,0,1.01-.11,1.33-.32.32-.21.47-.5.47-.85,0-.31-.08-.53-.22-.68s-.38-.26-.68-.34c-.23-.06-.48-.11-.75-.15-.27-.04-.56-.09-.86-.15-.61-.13-1.06-.35-1.36-.66-.29-.31-.44-.72-.44-1.23,0-.58.24-1.05.73-1.42.49-.37,1.11-.55,1.86-.55.48,0,.93.05,1.33.14.4.09.76.21,1.07.34v1.08h-.06c-.26-.22-.61-.41-1.04-.55-.43-.15-.87-.22-1.31-.22-.49,0-.89.1-1.18.31-.3.2-.45.47-.45.79,0,.29.07.51.22.68.15.16.41.29.78.38.2.04.48.1.84.16.36.06.67.13.93.19.51.14.9.34,1.16.62.26.28.39.66.39,1.15Z"/>
    <path class="cls-1" d="m132.43,58.22h-3.81c0,.32.05.6.14.83.1.24.23.43.39.58.16.15.35.26.57.33.22.07.46.11.73.11.35,0,.71-.07,1.06-.21.36-.14.61-.28.76-.42h.05v.95c-.29.12-.59.23-.9.31-.31.08-.63.12-.96.12-.86,0-1.53-.23-2.01-.7-.48-.46-.72-1.12-.72-1.98s.23-1.52.69-2.01c.46-.5,1.07-.75,1.82-.75.7,0,1.24.2,1.61.61.38.41.57.99.57,1.74v.47Zm-.85-.67c0-.46-.12-.81-.34-1.06-.23-.25-.57-.38-1.04-.38s-.84.14-1.11.41c-.28.27-.43.62-.47,1.02h2.96Z"/>
    <path class="cls-1" d="m134.5,54.68h-.98v-.9h.98v.9Zm-.06,6.04h-.87v-5.17h.87v5.17Z"/>
    <path class="cls-1" d="m139.68,59.22c0,.47-.2.86-.59,1.16-.39.3-.92.45-1.6.45-.38,0-.73-.05-1.05-.14-.32-.09-.59-.19-.8-.3v-.98h.05c.28.21.58.37.92.49.34.12.66.18.97.18.38,0,.68-.06.9-.19.22-.12.32-.32.32-.58,0-.2-.06-.36-.18-.46-.12-.1-.34-.2-.68-.27-.12-.03-.29-.06-.48-.1-.2-.04-.38-.08-.54-.12-.45-.12-.78-.3-.97-.53-.19-.23-.28-.52-.28-.86,0-.21.04-.41.13-.6.09-.19.22-.36.4-.51.17-.15.39-.26.66-.35.27-.09.57-.13.9-.13.31,0,.62.04.94.11.32.08.58.17.79.28v.93h-.05c-.22-.16-.49-.3-.81-.42-.32-.11-.63-.17-.94-.17s-.59.06-.81.18c-.22.12-.33.3-.33.54,0,.21.07.37.2.48.13.11.34.2.63.26.16.04.34.07.54.11.2.04.37.07.5.1.4.09.72.25.94.48.22.23.33.53.33.91Z"/>
    <path class="cls-1" d="m148.28,60.72h-.87v-2.94c0-.22,0-.44-.03-.64-.02-.21-.06-.37-.13-.5-.07-.13-.17-.23-.31-.3-.13-.07-.32-.1-.57-.1s-.49.06-.73.18c-.24.12-.49.28-.73.47,0,.07.02.15.02.25,0,.09,0,.19,0,.28v3.31h-.87v-2.94c0-.23,0-.45-.03-.65-.02-.21-.06-.37-.13-.49-.07-.13-.17-.23-.31-.3-.13-.07-.32-.1-.57-.1s-.48.06-.72.18c-.24.12-.48.27-.72.45v3.86h-.87v-5.17h.87v.57c.27-.23.54-.4.81-.53.27-.13.56-.19.86-.19.35,0,.65.07.9.22.25.15.43.35.55.62.35-.3.67-.51.96-.64.29-.13.6-.2.93-.2.57,0,.99.17,1.26.52.27.34.41.82.41,1.44v3.36Z"/>
    <path class="cls-1" d="m154.18,58.13c0,.84-.22,1.51-.65,2-.43.49-1.01.73-1.74.73s-1.31-.24-1.74-.73c-.43-.49-.65-1.15-.65-2s.22-1.51.65-2c.43-.49,1.01-.73,1.74-.73s1.3.25,1.74.73c.43.49.65,1.16.65,2Zm-.9,0c0-.67-.13-1.17-.39-1.49-.26-.33-.63-.49-1.09-.49s-.84.16-1.1.49c-.26.33-.39.82-.39,1.49s.13,1.14.39,1.47c.26.34.63.5,1.1.5s.83-.17,1.09-.5c.26-.33.4-.83.4-1.48Z"/>
    <path class="cls-1" d="m156.23,60.72h-.87v-7.21h.87v7.21Z"/>
    <path class="cls-1" d="m162.17,58.13c0,.84-.22,1.51-.65,2-.43.49-1.01.73-1.74.73s-1.31-.24-1.74-.73c-.43-.49-.65-1.15-.65-2s.22-1.51.65-2c.43-.49,1.01-.73,1.74-.73s1.3.25,1.74.73c.43.49.65,1.16.65,2Zm-.9,0c0-.67-.13-1.17-.39-1.49-.26-.33-.63-.49-1.09-.49s-.84.16-1.1.49c-.26.33-.39.82-.39,1.49s.13,1.14.39,1.47c.26.34.63.5,1.1.5s.83-.17,1.09-.5c.26-.33.4-.83.4-1.48Z"/>
    <path class="cls-1" d="m167.54,60.13c0,.88-.2,1.52-.6,1.93-.4.41-1.01.62-1.84.62-.27,0-.54-.02-.8-.06-.26-.04-.52-.09-.77-.16v-.89h.05c.14.05.37.12.68.21.31.08.62.12.93.12s.54-.03.74-.11c.19-.07.35-.17.45-.3.11-.12.19-.27.23-.44.05-.17.07-.36.07-.57v-.47c-.26.21-.51.37-.75.47-.24.1-.54.16-.91.16-.62,0-1.11-.22-1.47-.67-.36-.45-.54-1.08-.54-1.89,0-.45.06-.83.19-1.15.13-.32.3-.6.51-.84.2-.22.44-.39.73-.51.29-.12.57-.18.86-.18.3,0,.55.03.75.09.2.06.42.15.64.28l.06-.22h.82v4.58Zm-.87-.83v-2.82c-.23-.11-.45-.18-.65-.22-.2-.04-.4-.07-.6-.07-.48,0-.86.16-1.13.48-.28.32-.41.79-.41,1.4,0,.58.1,1.02.31,1.32.2.3.54.45,1.01.45.25,0,.51-.05.76-.15.25-.1.49-.23.7-.39Z"/>
    <path class="cls-1" d="m170,54.68h-.98v-.9h.98v.9Zm-.06,6.04h-.87v-5.17h.87v5.17Z"/>
    <path class="cls-1" d="m175.3,60.39c-.29.14-.57.25-.83.32-.26.08-.54.12-.83.12-.37,0-.72-.06-1.03-.16-.31-.11-.58-.28-.8-.5-.23-.22-.4-.5-.52-.84-.12-.34-.19-.74-.19-1.19,0-.85.23-1.51.7-1.99.47-.48,1.08-.72,1.84-.72.3,0,.59.04.87.13.29.08.55.19.79.31v.97h-.05c-.27-.21-.54-.37-.82-.48-.28-.11-.56-.17-.83-.17-.49,0-.88.17-1.17.5-.29.33-.43.82-.43,1.46s.14,1.1.42,1.44c.28.33.67.5,1.18.5.18,0,.36-.02.54-.07.18-.05.35-.11.49-.18.13-.06.25-.13.36-.21.11-.07.2-.14.26-.19h.05v.96Z"/>
    <path class="cls-1" d="m180.24,60.72h-.87v-.55c-.08.05-.18.13-.31.22-.13.09-.26.17-.38.22-.15.07-.31.13-.5.18-.19.05-.41.07-.66.07-.47,0-.86-.15-1.19-.46-.32-.31-.49-.7-.49-1.18,0-.39.08-.71.25-.95.17-.24.41-.43.72-.57.32-.14.69-.23,1.14-.28.44-.05.92-.09,1.42-.11v-.13c0-.2-.03-.36-.1-.49-.07-.13-.17-.23-.3-.31-.12-.07-.27-.12-.44-.14-.17-.03-.35-.04-.54-.04-.23,0-.48.03-.76.09-.28.06-.57.15-.87.26h-.05v-.88c.17-.05.42-.1.74-.15.32-.05.64-.08.95-.08.36,0,.68.03.95.09.27.06.5.16.7.31.2.14.34.33.45.55.1.23.15.51.15.84v3.51Zm-.87-1.27v-1.44c-.27.02-.58.04-.94.07-.36.03-.64.07-.85.13-.25.07-.45.18-.61.33-.15.15-.23.36-.23.62,0,.3.09.52.27.67.18.15.45.22.82.22.31,0,.59-.06.84-.18.25-.12.49-.26.7-.43Z"/>
    <path class="cls-1" d="m182.62,60.72h-.87v-7.21h.87v7.21Z"/>
    <path class="cls-1" d="m191.71,58.75c0,.27-.06.53-.19.8-.13.26-.3.49-.53.67-.25.2-.54.35-.86.46-.33.11-.73.17-1.19.17-.5,0-.94-.05-1.34-.14-.4-.09-.8-.23-1.21-.41v-1.15h.07c.35.29.75.51,1.21.67s.89.24,1.29.24c.57,0,1.01-.11,1.33-.32.32-.21.48-.5.48-.85,0-.31-.07-.53-.22-.68-.15-.15-.38-.26-.68-.34-.23-.06-.48-.11-.75-.15-.27-.04-.56-.09-.86-.15-.61-.13-1.06-.35-1.36-.66-.3-.31-.44-.72-.44-1.23,0-.58.24-1.05.73-1.42.49-.37,1.11-.55,1.86-.55.49,0,.93.05,1.33.14.4.09.76.21,1.07.34v1.08h-.06c-.26-.22-.61-.41-1.03-.55-.43-.15-.87-.22-1.31-.22-.49,0-.89.1-1.18.31-.3.2-.45.47-.45.79,0,.29.07.51.22.68.15.16.41.29.78.38.2.04.48.1.84.16.36.06.67.13.93.19.51.14.9.34,1.16.62.26.28.39.66.39,1.15Z"/>
    <path class="cls-1" d="m197.27,58.22h-3.81c0,.32.05.6.14.83.1.24.23.43.39.58.16.15.35.26.57.33.22.07.46.11.73.11.35,0,.71-.07,1.06-.21.36-.14.61-.28.76-.42h.05v.95c-.29.12-.59.23-.9.31-.31.08-.63.12-.96.12-.86,0-1.53-.23-2.01-.7-.48-.46-.72-1.12-.72-1.98s.23-1.52.69-2.01c.46-.5,1.07-.75,1.82-.75.7,0,1.24.2,1.61.61.38.41.57.99.57,1.74v.47Zm-.85-.67c0-.46-.12-.81-.35-1.06-.23-.25-.57-.38-1.04-.38s-.84.14-1.11.41c-.28.27-.43.62-.47,1.02h2.96Z"/>
    <path class="cls-1" d="m201.63,56.49h-.05c-.13-.03-.26-.05-.38-.07-.12-.01-.27-.02-.43-.02-.27,0-.53.06-.78.18-.25.12-.49.27-.72.46v3.67h-.87v-5.17h.87v.76c.35-.28.65-.47.92-.59.26-.12.53-.17.81-.17.15,0,.26,0,.33.01.07,0,.17.02.31.04v.89Z"/>
    <path class="cls-1" d="m206.75,55.54l-2.09,5.17h-.88l-2.08-5.17h.94l1.6,4.12,1.59-4.12h.91Z"/>
    <path class="cls-1" d="m208.64,54.68h-.98v-.9h.98v.9Zm-.06,6.04h-.87v-5.17h.87v5.17Z"/>
    <path class="cls-1" d="m213.94,60.39c-.29.14-.57.25-.83.32-.26.08-.54.12-.83.12-.37,0-.72-.06-1.03-.16-.31-.11-.58-.28-.8-.5-.23-.22-.4-.5-.52-.84-.12-.34-.19-.74-.19-1.19,0-.85.23-1.51.7-1.99.47-.48,1.08-.72,1.84-.72.3,0,.59.04.87.13.29.08.55.19.79.31v.97h-.05c-.27-.21-.54-.37-.82-.48-.28-.11-.56-.17-.83-.17-.49,0-.88.17-1.17.5-.29.33-.43.82-.43,1.46s.14,1.1.42,1.44c.28.33.67.5,1.18.5.18,0,.36-.02.54-.07.18-.05.35-.11.49-.18.13-.06.25-.13.36-.21.11-.07.2-.14.26-.19h.05v.96Z"/>
    <path class="cls-1" d="m219.21,58.22h-3.81c0,.32.05.6.14.83.1.24.23.43.39.58.16.15.35.26.57.33.22.07.46.11.73.11.35,0,.71-.07,1.06-.21.36-.14.61-.28.76-.42h.05v.95c-.29.12-.59.23-.9.31-.31.08-.63.12-.96.12-.86,0-1.53-.23-2.01-.7-.48-.46-.72-1.12-.72-1.98s.23-1.52.69-2.01c.46-.5,1.07-.75,1.82-.75.7,0,1.24.2,1.61.61.38.41.57.99.57,1.74v.47Zm-.85-.67c0-.46-.12-.81-.35-1.06-.23-.25-.57-.38-1.04-.38s-.84.14-1.11.41c-.28.27-.43.62-.47,1.02h2.96Z"/>
  </g>
  <path class="cls-1" d="m0,54.26v6.83h6.85v-6.83H0Zm5.75,4.06h-1.67v1.67h-1.44v-1.67H.97v-1.44h1.67v-1.67h1.44v1.67h1.67v1.44Z"/>
  <polygon class="cls-1" points="71.03 54.23 59 31.6 47.61 59.05 31.32 0 20.92 54.26 7.7 54.26 7.7 61.08 26.57 61.08 32.52 30.02 32.52 30.02 46.31 80 59.76 47.58 66.92 61.05 79.96 61.05 79.96 54.23 71.03 54.23"/>
</svg>